HIERARCHY
ROOT Hips
{
	OFFSET 0.000000 0.000000 0.000000 
	CHANNELS 6 Xposition Yposition Zposition Yrotation Zrotation Xrotation 
	JOINT Lumbar
	{
		OFFSET 0.000000 0.000000 0.000000 
		CHANNELS 3 Zrotation Xrotation Yrotation
		JOINT Neck
		{
			OFFSET 0.000000 0.445665 0.000000 
			CHANNELS 3 Zrotation Xrotation Yrotation
			End Site
			{
				OFFSET 0.000000 0.227535 0.000000 
			}
		}
		JOINT RightShoulder
		{
			OFFSET 0.019635 0.377685 0.194865 
			CHANNELS 3 Zrotation Xrotation Yrotation
			JOINT RightElbow
			{
				OFFSET 0.000000 -0.243375 0.000000 
				CHANNELS 2 Zrotation Yrotation
				JOINT RightWrist
				{
					OFFSET 0.000000 -0.264825 0.000000 
					CHANNELS 2 Zrotation Xrotation
					End Site
					{
						OFFSET 0.006600 -0.176220 0.000990 
					}
				}
			}
		}
		JOINT LeftShoulder
		{
			OFFSET 0.019635 0.377685 -0.194865 
			CHANNELS 3 Zrotation Xrotation Yrotation
			JOINT LeftElbow
			{
				OFFSET 0.000000 -0.243375 0.000000 
				CHANNELS 2 Zrotation Yrotation
				JOINT LeftWrist
				{
					OFFSET 0.000000 -0.264825 0.000000 
					CHANNELS 2 Zrotation Xrotation
					End Site
					{
						OFFSET 0.006600 -0.176220 -0.000990 
					}
				}
			}
		}
	}
	JOINT RightHip
	{
		OFFSET 0.052140 -0.069960 0.075570 
		CHANNELS 3 Zrotation Xrotation Yrotation
		JOINT RightKnee
		{
			OFFSET 0.000000 -0.402270 0.000000 
			CHANNELS 1 Zrotation
			JOINT RightAnkle
			{
				OFFSET 0.000000 -0.404085 0.000000 
				CHANNELS 3 Zrotation Xrotation Yrotation
				End Site
				{
					OFFSET 0.204105 -0.089430 0.008415 
				}
			}
		}
	}
	JOINT LeftHip
	{
		OFFSET 0.052140 -0.069960 -0.075570 
		CHANNELS 3 Zrotation Xrotation Yrotation
		JOINT LeftKnee
		{
			OFFSET 0.000000 -0.402270 0.000000 
			CHANNELS 1 Zrotation
			JOINT LeftAnkle
			{
				OFFSET 0.000000 -0.404085 0.000000 
				CHANNELS 3 Zrotation Xrotation Yrotation
				End Site
				{
					OFFSET 0.204105 -0.089430 -0.008415 
				}
			}
		}
	}
}
MOTION
Frames: 27
Frame Time: 0.02
0.05888 -0.91146 -0.03757 12.75126 9.05989 -14.00923 3.61527 3.21464 -0.12978 -26.0031 -1.19822 -0.83079 -24.28753 -54.97741 -29.15904 88.55495 82.21082 -10.24171 -4.10224 -12.19494 45.46913 28.94242 93.6872 -83.43262 -16.75746 4.87676 130.40519 -34.09097 -40.62271 -147.64093 -13.85633 35.8088 17.18846 130.40518 18.40881 40.6227 -148.91172 11.36767 -35.79901 -17.18589
0.06008 -0.91123 -0.03689 12.67711 8.86769 -13.65365 3.87394 3.09501 -0.20883 -25.88428 -1.25347 -0.83079 -24.63104 -55.12049 -29.55381 89.0399 82.23583 -10.63395 -4.35732 -12.51635 45.26834 29.43429 93.9669 -83.44316 -16.78338 4.87331 130.40519 -34.09095 -40.6227 -147.74695 -13.89754 35.80811 17.18827 130.40518 18.54268 40.6227 -148.91172 12.27382 -35.80154 -17.18655
0.0616 -0.91109 -0.03574 12.67209 8.70631 -13.27203 4.10872 2.9323 -0.30233 -25.78846 -1.33443 -0.83079 -25.02984 -55.15512 -29.97718 89.56882 82.26824 -11.11827 -4.67657 -12.84474 45.041 29.9436 94.25033 -83.45728 -16.792 4.88896 130.40519 -34.09093 -40.6227 -147.87565 -13.98465 35.80727 17.18806 130.40518 18.67156 40.6227 -148.91172 13.23824 -35.80274 -17.18687
0.06297 -0.91092 -0.0348 12.63746 8.5314 -12.90094 4.35149 2.79093 -0.38831 -25.6826 -1.40562 -0.83079 -25.39654 -55.23778 -30.38233 90.07763 82.2941 -11.53026 -4.94774 -13.16987 44.81435 30.44499 94.53349 -83.46316 -16.78788 4.89004 130.40519 -34.09091 -40.6227 -147.99302 -14.05424 35.80653 17.18786 130.40519 18.80572 40.6227 -148.91172 14.16509 -35.80452 -17.18733
0.06438 -0.91073 -0.0339 12.59723 8.35461 -12.5337 4.60637 2.64049 -0.47833 -25.57459 -1.46959 -0.83079 -25.79646 -55.32432 -30.81348 90.58721 82.33277 -12.06809 -5.2971 -13.49359 44.63574 30.94627 94.80882 -83.49545 -16.86803 4.91434 130.40519 -34.09089 -40.6227 -148.11506 -14.11094 35.80568 17.18764 130.40519 18.92546 40.6227 -148.91173 15.14299 -35.80652 -17.18786
0.06578 -0.9106 -0.0328 12.58428 8.1892 -12.15283 4.83 2.49957 -0.56304 -25.47689 -1.55417 -0.83079 -26.13833 -55.37835 -31.19486 91.10503 82.34702 -12.3689 -5.50096 -13.8226 44.35026 31.45131 95.1024 -83.47526 -16.7719 4.89622 130.40518 -34.09087 -40.6227 -148.23236 -14.20559 35.80502 17.18747 130.40519 19.07504 40.62271 -148.91173 16.02597 -35.80771 -17.18817
0.06707 -0.9106 -0.03127 12.63014 8.04524 -11.74175 4.97736 2.3929 -0.63368 -25.39938 -1.69174 -0.83079 -26.31304 -55.35885 -31.44244 91.64127 82.28907 -11.96618 -5.26895 -14.1644 43.78186 31.96991 95.44139 -83.29556 -16.16451 4.7468 130.40518 -34.09085 -40.6227 -148.33432 -14.3853 35.80491 17.18744 130.40519 19.30416 40.6227 -148.91173 16.64212 -35.80687 -17.18795
0.06833 -0.91065 -0.02956 12.7008 7.91208 -11.31804 5.09336 2.29813 -0.69781 -25.33198 -1.8486 -0.83079 -26.4257 -55.31208 -31.63642 92.1832 82.20694 -11.32677 -4.89168 -14.51154 43.10564 32.49016 95.79973 -83.06551 -15.38569 4.55591 130.40518 -34.09084 -40.6227 -148.43008 -14.60277 35.80501 17.18746 130.40519 19.56436 40.6227 -148.91173 17.15823 -35.80528 -17.18753
0.0696 -0.91069 -0.02793 12.75946 7.77553 -10.8995 5.22099 2.19966 -0.76218 -25.26166 -1.99501 -0.83079 -26.56203 -55.28495 -31.84768 92.71831 82.13786 -10.81309 -4.59306 -14.85657 42.47536 33.00525 96.15194 -82.86755 -14.70417 4.39034 130.40518 -34.09083 -40.6227 -148.52655 -14.8084 35.80503 17.18747 130.40518 19.81334 40.6227 -148.91172 17.71379 -35.80411 -17.18723
0.07091 -0.9107 -0.0263 12.8233 7.63366 -10.48189 5.35879 2.09191 -0.83831 -25.18496 -2.14954 -0.83079 -26.71963 -55.22459 -32.09031 93.27259 82.06023 -10.22577 -4.24357 -15.20055 41.8578 33.54064 96.49245 -82.63085 -13.94013 4.19808 130.40518 -34.09081 -40.6227 -148.6328 -14.99376 35.80498 17.18745 130.40518 20.05025 40.6227 -148.91172 18.29797 -35.80255 -17.18682
0.07212 -0.91078 -0.02464 12.88178 7.505 -10.06038 5.46834 2.00757 -0.88847 -25.12382 -2.29125 -0.83079 -26.81724 -55.22692 -32.25394 93.788 81.99468 -9.73465 -3.96439 -15.54783 41.18755 34.03255 96.86258 -82.46279 -13.30753 4.05132 130.40518 -34.09081 -40.6227 -148.71679 -15.22902 35.80512 17.18749 130.40518 20.31927 40.6227 -148.91172 18.79659 -35.80164 -17.18658
0.07305 -0.91106 -0.02299 12.91509 7.41044 -9.6256 5.50684 1.97933 -0.86631 -25.10162 -2.39399 -0.83079 -26.76533 -55.42168 -32.21637 94.19197 81.96753 -9.56498 -3.91755 -15.90356 40.40616 34.41479 97.30413 -82.49732 -13.07994 4.04044 130.40519 -34.09082 -40.6227 -148.74173 -15.59774 35.80577 17.18766 130.40518 20.67347 40.6227 -148.91172 19.09465 -35.80285 -17.1869
0.07388 -0.91139 -0.02134 12.94262 7.32863 -9.18862 5.51818 1.97557 -0.81861 -25.09488 -2.48279 -0.83079 -26.65439 -55.67826 -32.09982 94.55687 81.95358 -9.5003 -3.94571 -16.26223 39.57406 34.75067 97.77596 -82.6026 -12.99076 4.0767 130.40519 -34.09085 -40.6227 -148.7442 -16.01388 35.80661 17.18788 130.40518 21.05813 40.6227 -148.91172 19.3074 -35.80473 -17.18739
0.07475 -0.91168 -0.01969 12.97523 7.24062 -8.75634 5.54262 1.9644 -0.78395 -25.08202 -2.57711 -0.83079 -26.57001 -55.8993 -32.0173 94.94126 81.93399 -9.38839 -3.93746 -16.6192 38.76014 35.10113 98.23747 -82.67484 -12.83806 4.09121 130.40519 -34.09087 -40.6227 -148.75626 -16.40524 35.80735 17.18807 130.40519 21.4262 40.6227 -148.91173 19.55189 -35.80625 -17.18779
0.07563 -0.91203 -0.018 12.99831 7.15459 -8.30758 5.563 1.93761 -0.74293 -25.06585 -2.67566 -0.83079 -26.48603 -56.15241 -31.94262 95.31872 81.91164 -9.26599 -3.93391 -16.97815 37.96317 35.48082 98.68472 -82.74867 -12.6814 4.10558 130.40519 -34.0909 -40.6227 -148.77071 -16.81287 35.80818 17.18829 130.40519 21.80707 40.62271 -148.91173 19.82371 -35.80801 -17.18825
0.07647 -0.91228 -0.0164 13.03963 7.06746 -7.89329 5.58547 1.94944 -0.70929 -25.05989 -2.76175 -0.83079 -26.38623 -56.35171 -31.83127 95.70107 81.89898 -9.19378 -3.94038 -17.33328 37.12004 35.7864 99.16913 -82.83714 -12.5688 4.13208 130.40519 -34.09092 -40.62271 -148.77496 -17.19574 35.80884 17.18847 130.40519 22.16794 40.62271 -148.91173 20.01827 -35.80941 -17.18862
0.07725 -0.91221 -0.01504 13.13176 6.97304 -7.57074 5.62357 2.05849 -0.70144 -25.08012 -2.81747 -0.83079 -26.2724 -56.40455 -31.65704 96.10778 81.90555 -9.23219 -3.95593 -17.67955 36.16433 35.91665 99.74368 -82.94446 -12.53833 4.17968 130.40519 -34.09091 -40.62271 -148.75618 -17.51218 35.80896 17.1885 130.40519 22.46739 40.62271 -148.91173 20.03239 -35.80966 -17.18868
0.07799 -0.91205 -0.01377 13.2425 6.87721 -7.28387 5.66431 2.20617 -0.7021 -25.10964 -2.86089 -0.83079 -26.14207 -56.39769 -31.44495 96.52034 81.92218 -9.31884 -3.97978 -18.0211 35.16408 35.97018 100.3551 -83.06486 -12.54898 4.23818 130.40519 -34.0909 -40.62271 -148.72803 -17.79911 35.80889 17.18848 130.40519 22.74517 40.62271 -148.91173 19.97008 -35.80952 -17.18864
0.07874 -0.91193 -0.01247 13.34524 6.78272 -6.98324 5.70191 2.3384 -0.69945 -25.13376 -2.90952 -0.83079 -26.00974 -56.40742 -31.23845 96.92951 81.93733 -9.38646 -4.00071 -18.3636 34.18302 36.04752 100.9533 -83.18268 -12.5458 4.29245 130.40519 -34.09089 -40.62271 -148.70437 -18.09072 35.80891 17.18849 130.40519 23.03201 40.62271 -148.91173 19.9352 -35.80954 -17.18865
0.07952 -0.9118 -0.01113 13.4459 6.68576 -6.67178 5.74664 2.46263 -0.69357 -25.16363 -2.95946 -0.83079 -25.91576 -56.46516 -31.07977 97.34101 81.94049 -9.4465 -4.02048 -18.71246 33.2042 36.17143 101.53904 -83.28983 -12.52827 4.34537 130.40519 -34.09088 -40.62271 -148.67881 -18.42176 35.80891 17.18848 130.40519 23.32367 40.62271 -148.91173 19.92756 -35.80964 -17.18868
0.08023 -0.91168 -0.0099 13.55533 6.59341 -6.39186 5.77763 2.61236 -0.69677 -25.18326 -3.00369 -0.83079 -25.7383 -56.4062 -30.81154 97.7488 81.97009 -9.53104 -4.04376 -19.04538 32.21128 36.17883 102.15733 -83.42003 -12.54681 4.40299 130.40519 -34.09088 -40.62271 -148.65546 -18.66196 35.80891 17.18849 130.40519 23.59926 40.62271 -148.91173 19.84684 -35.80947 -17.18863
0.08076 -0.91161 -0.00892 13.68474 6.51455 -6.18628 5.76896 2.82289 -0.72288 -25.17461 -3.0372 -0.83079 -25.33881 -56.05411 -30.26776 98.15131 82.07697 -9.68357 -4.0739 -19.34823 31.18713 35.89943 102.87067 -83.62211 -12.67011 4.47148 130.40519 -34.09089 -40.62271 -148.63907 -18.66736 35.80906 17.18852 130.40519 23.83953 40.62271 -148.91173 19.57809 -35.80854 -17.18839
0.08121 -0.91156 -0.00805 13.82223 6.44029 -6.01201 5.74665 3.0576 -0.75792 -25.15481 -3.06503 -0.83079 -24.85557 -55.58365 -29.61228 98.54872 82.20897 -9.85647 -4.10707 -19.63254 30.15144 35.50256 103.61221 -83.84449 -12.82493 4.54394 130.40519 -34.09091 -40.62271 -148.62562 -18.58055 35.80922 17.18857 130.40519 24.06338 40.6227 -148.91173 19.24012 -35.80737 -17.18808
0.08169 -0.9115 -0.00715 13.95589 6.36357 -5.826 5.73146 3.28129 -0.78909 -25.13862 -3.09422 -0.83079 -24.40773 -55.1575 -28.99657 98.9447 82.32478 -10.01142 -4.13904 -19.91725 29.12313 35.14918 104.33196 -84.04967 -12.95445 4.61399 130.40519 -34.09093 -40.62271 -148.61192 -18.52982 35.80934 17.1886 130.40519 24.29234 40.6227 -148.91173 18.93708 -35.80637 -17.18782
0.08219 -0.91144 -0.0062 14.09106 6.28824 -5.63055 5.71265 3.50671 -0.81993 -25.12905 -3.12826 -0.83079 -23.96953 -54.7692 -28.4253 99.35742 82.4604 -10.20424 -4.17061 -20.23668 28.08326 34.83512 105.09281 -84.28885 -13.13116 4.68712 130.40519 -34.09095 -40.62271 -148.59333 -18.50235 35.80959 17.18866 130.40518 24.53111 40.6227 -148.91172 18.61528 -35.8051 -17.18749
0.08263 -0.91139 -0.00537 14.22453 6.21127 -5.46194 5.69787 3.73348 -0.85325 -25.10276 -3.15082 -0.83079 -23.4928 -54.27494 -27.73616 99.73306 82.56149 -10.3231 -4.20359 -20.47819 27.06649 34.41196 105.77185 -84.46203 -13.21737 4.75449 130.40519 -34.09096 -40.62271 -148.58572 -18.40531 35.80958 17.18866 130.40518 24.74506 40.6227 -148.91172 18.31886 -35.80433 -17.18728
0.08298 -0.91138 -0.00481 14.35306 6.12736 -5.35798 5.69952 3.96002 -0.89317 -25.03446 -3.14498 -0.83079 -22.91978 -53.51523 -26.74301 100.0154 82.55309 -10.22594 -4.23987 -20.52013 26.10669 33.71977 106.23848 -84.4466 -13.038 4.80624 130.40519 -34.0909 -40.62271 -148.60781 -18.13593 35.80881 17.18846 130.40518 24.90114 40.6227 -148.91172 18.09521 -35.8051 -17.18749
